<svg width="44" height="44" viewBox="0 0 44 44" fill="none" xmlns="http://www.w3.org/2000/svg">
<rect x="1" y="1" width="42" height="42" stroke="black" stroke-width="2"/>
<rect x="2" y="2" width="40" height="40" fill="white"/>
<path d="M24.896 5.008V5.488C24.352 5.504 23.936 5.568 23.648 5.68C23.376 5.776 23.192 5.968 23.096 6.256C23 6.528 22.952 6.96 22.952 7.552V19.456C22.952 20.032 23 20.464 23.096 20.752C23.192 21.04 23.376 21.232 23.648 21.328C23.936 21.424 24.352 21.488 24.896 21.52V22C24.528 21.968 24.064 21.952 23.504 21.952C22.96 21.936 22.408 21.928 21.848 21.928C21.224 21.928 20.64 21.936 20.096 21.952C19.552 21.952 19.112 21.968 18.776 22V21.52C19.32 21.488 19.728 21.424 20 21.328C20.288 21.232 20.48 21.04 20.576 20.752C20.672 20.464 20.72 20.032 20.72 19.456V6.256L20.816 6.328L14.936 22.12H14.552L8.504 6.544V19.216C8.504 19.792 8.552 20.248 8.648 20.584C8.76 20.904 8.968 21.136 9.272 21.28C9.592 21.408 10.064 21.488 10.688 21.52V22C10.4 21.968 10.024 21.952 9.56 21.952C9.096 21.936 8.656 21.928 8.24 21.928C7.84 21.928 7.432 21.936 7.016 21.952C6.616 21.952 6.28 21.968 6.008 22V21.52C6.552 21.488 6.96 21.408 7.232 21.28C7.52 21.136 7.712 20.904 7.808 20.584C7.904 20.248 7.952 19.792 7.952 19.216V7.552C7.952 6.96 7.904 6.528 7.808 6.256C7.712 5.968 7.52 5.776 7.232 5.68C6.96 5.568 6.552 5.504 6.008 5.488V5.008C6.28 5.024 6.616 5.04 7.016 5.056C7.432 5.072 7.84 5.08 8.24 5.08C8.592 5.08 8.952 5.072 9.32 5.056C9.704 5.04 10.024 5.024 10.28 5.008L15.728 19.36L15.32 19.552L20.72 5.08C20.912 5.08 21.096 5.08 21.272 5.08C21.464 5.08 21.656 5.08 21.848 5.08C22.408 5.08 22.96 5.072 23.504 5.056C24.064 5.04 24.528 5.024 24.896 5.008Z" fill="black"/>
<path d="M37.08 22.008V22.488C36.536 22.504 36.12 22.584 35.832 22.728C35.56 22.872 35.376 23.104 35.28 23.424C35.184 23.744 35.136 24.2 35.136 24.792V39.12C35.04 39.12 34.944 39.12 34.848 39.12C34.768 39.12 34.68 39.12 34.584 39.12L24.504 23.544V36.216C24.504 36.792 24.552 37.248 24.648 37.584C24.76 37.904 24.968 38.136 25.272 38.28C25.592 38.408 26.064 38.488 26.688 38.52V39C26.4 38.968 26.024 38.952 25.56 38.952C25.096 38.936 24.656 38.928 24.24 38.928C23.84 38.928 23.432 38.936 23.016 38.952C22.616 38.952 22.28 38.968 22.008 39V38.52C22.552 38.488 22.96 38.408 23.232 38.28C23.52 38.136 23.712 37.904 23.808 37.584C23.904 37.248 23.952 36.792 23.952 36.216V24.552C23.952 23.96 23.904 23.528 23.808 23.256C23.712 22.968 23.52 22.776 23.232 22.68C22.96 22.568 22.552 22.504 22.008 22.488V22.008C22.28 22.024 22.616 22.04 23.016 22.056C23.432 22.072 23.84 22.08 24.24 22.08C24.592 22.08 24.928 22.072 25.248 22.056C25.568 22.04 25.856 22.024 26.112 22.008L34.584 35.064V24.792C34.584 24.2 34.528 23.744 34.416 23.424C34.32 23.104 34.112 22.872 33.792 22.728C33.488 22.584 33.024 22.504 32.4 22.488V22.008C32.688 22.024 33.064 22.04 33.528 22.056C34.008 22.072 34.448 22.08 34.848 22.08C35.264 22.08 35.672 22.072 36.072 22.056C36.488 22.04 36.824 22.024 37.08 22.008Z" fill="black"/>
</svg>
